# xmcd
#
# Track frame offsets:
#	150
#	45977
#	95985
#	142997
#	193908
#
# Disc length: 2859 seconds
#
# Revision: 0
# Processed by: cddbd v1.5.2PL0 Copyright (c) Steve Scherf et al.
# Submitted via: audiograbber 1.83.01
#
DISCID=430b2905
DTITLE=Grateful Dead - 94-07-19 Deer Creek Music Centre, Noblesville IN
DYEAR=1900
DGENRE=
TTITLE0=Space
TTITLE1=Wharf Rat
TTITLE2=Throwing Stones
TTITLE3=Not Fade Away
TTITLE4=Rain
EXTD=
EXTT0=
EXTT1=
EXTT2=
EXTT3=
EXTT4=
PLAYORDER=
